<?xml version="1.0" encoding="UTF-8" standalone="no"?>
<!-- Created with Inkscape (http://www.inkscape.org/) -->

<svg
   xmlns:dc="http://purl.org/dc/elements/1.1/"
   xmlns:cc="http://creativecommons.org/ns#"
   xmlns:rdf="http://www.w3.org/1999/02/22-rdf-syntax-ns#"
   xmlns:svg="http://www.w3.org/2000/svg"
   xmlns="http://www.w3.org/2000/svg"
   version="1.0"
   width="1014.5312"
   height="1184.4688"
   id="svg2848">
  <metadata
     id="metadata1970">
    <rdf:RDF>
      <cc:Work
         rdf:about="">
        <dc:format>image/svg+xml</dc:format>
        <dc:type
           rdf:resource="http://purl.org/dc/dcmitype/StillImage" />
        <dc:title></dc:title>
      </cc:Work>
    </rdf:RDF>
  </metadata>
  <defs
     id="defs2850" />
  <g
     transform="translate(53.78125,0)"
     id="layer2"
     style="display:inline">
    <path
       d="m 750,455 a 305,295 0 1 1 -610,0 305,295 0 1 1 610,0 z"
       transform="matrix(0.98360656,0,0,1.0169492,12.295082,-12.711864)"
       id="path5572"
       style="fill:#339966;fill-opacity:1;fill-rule:nonzero;stroke:none" />
    <path
       d="M 450,0 C 296.44174,0 160.77984,77.047236 79.5625,194.5625 l 87,50.25 C 230.1847,157.10508 333.43928,100 450,100 c 116.56072,0 219.8153,57.10508 283.4375,144.8125 l 87,-50.25 C 739.22016,77.047236 603.55826,0 450,0 z"
       id="path4005"
       style="fill:#990000;fill-opacity:1;stroke:none" />
    <path
       d="M 32.1875,282.75 C 11.448392,334.46664 0,390.90008 0,450 0,681.50364 175.0975,872.35712 400,897.25 l 0,-100.875 C 230.47074,772.0781 100,626.21538 100,450 c 0,-40.89156 7.03061,-80.13628 19.9375,-116.625 l -87.75,-50.625 z"
       id="path4003"
       style="fill:#006699;fill-opacity:1;stroke:none" />
    <path
       d="m 867.8125,282.75 -87.75,50.625 C 792.9694,369.86372 800,409.10844 800,450 800,626.21536 669.52928,772.0781 500,796.375 l 0,100.875 C 724.90248,872.35712 899.99998,681.50364 900,450 900,390.90008 888.5516,334.46664 867.8125,282.75 z"
       id="path3918"
       style="fill:#006699;fill-opacity:1;stroke:none" />
  </g>
  <g
     transform="translate(53.78125,0)"
     id="layer5">
    <path
       d="m 352.90538,228.90724 c 0,0 1.71353,12.34205 -6.87413,19.90526 -19.44108,17.1219 -47.40736,38.50284 -50.5,46.40625 -3.09264,7.90341 1.03088,19.25049 1.03088,19.25049 0,0 -8.93787,4.47308 -10.99963,17.87451 -1.10841,7.20466 9.96764,19.90489 9.96764,19.90489 0,0 -8.93626,4.47407 -8.59264,15.47011 0.12924,4.13579 3.09424,8.25111 3.09424,8.25111 0,0 8.59487,-2.0641 13.06201,-3.43861 4.46715,-1.3745 6.15625,0 6.15625,0 0,0 -13.71813,14.44244 -12,28.1875 1.71814,13.74505 11.65625,24.71875 11.65625,24.71875 0,0 5.15947,-19.90711 14.09375,-22.3125 8.93429,-2.40538 10.3125,-1.03125 10.3125,-1.03125 -2.96339,12.70944 -4.24832,31.60413 -0.34375,47.40625 0,0 -61.97412,8.1344 -65.96875,15.125 -5.49803,9.62154 32.65551,70.781 32.65551,70.781 0,0 -23.38205,21.66193 -41.25062,38.15601 -7.15063,6.60058 -19.59239,21.65674 -19.59239,21.65674 0,0 8.59721,9.24988 18.21875,8.90625 9.62154,-0.34362 13.0625,-2.0625 13.0625,-2.0625 0,0 8.22865,-17.5089 27.47172,-37.0956 19.24308,-19.58671 86.62203,-69.4044 86.62203,-69.4044 0,0 15.44207,7.90785 28.15625,12.375 12.71418,4.46714 34.375,6.5 34.375,6.5 0,0 -12.00543,18.57457 -12.375,25.78125 C 433.6565,553.62018 449.8125,577 449.8125,577 c 0,0 -34.71949,3.43837 -36.78125,5.84375 -2.06175,2.40539 -22.3125,41.21875 -22.3125,41.21875 0,0 -2.43466,8.25149 5.46875,12.375 7.90341,4.12352 14.78125,-0.6875 14.78125,-0.6875 0,0 5.93507,-13.2384 7.56374,-26.12537 2.06853,-16.36746 20.62674,-12.3745 30.24827,-11.68725 9.62154,0.68725 24.75074,-3.40749 25.43799,-7.18738 0.68726,-3.77989 1.03149,-34.03285 4.46776,-38.5 3.43626,-4.46714 21.28137,-2.40798 21.28137,-2.40798 0,0 -7.21739,26.81434 -4.812,34.37413 2.40538,7.55978 18.21801,23.34709 18.21801,23.34709 0,0 -37.43799,32.65785 -41.90514,39.18676 -4.46714,6.5289 -11.00012,20.62537 -11.34375,21.65625 -0.34362,1.03088 12.69158,10.31163 24.03125,7.90625 11.33967,-2.40539 0.36664,-17.10205 12.03125,-29.5625 17.14313,-18.31276 38.84374,-23.7216 41.24913,-29.21962 2.40538,-5.49803 -14.77754,-35.71961 -7.56138,-45.34115 7.21615,-9.62154 34.00099,-36.78768 37.43725,-49.84548 3.43627,-13.05781 2.0625,-41.90625 2.0625,-41.90625 0,0 20.96986,-3.09374 20.96986,8.59462 0,36.08077 -24.16511,34.70156 -24.75111,66.31163 -0.54154,29.21186 21.79712,48.37592 36.43614,49.46838 23.02296,1.71813 52.56386,-43.28088 52.56386,-43.28088 0,0 -28.26273,3.0188 -29.53261,-4.81213 -2.06177,-12.71418 39.15686,-26.10833 31.94071,-60.47097 -7.21615,-34.36264 -32.88526,-47.69001 -42.25185,-46.4044 -17.52495,2.40539 -30.94355,17.52964 -47.78125,13.0625 -16.83769,-4.46715 -25.07462,-12.72431 -50.50297,-23.72036 -25.42836,-10.99604 -31.60004,-8.91292 -57.37203,-31.93589 -15.41206,-13.7681 -26.20959,-15.39245 -29.56411,-44.68886 -1.68498,-14.7157 7.56411,-18.21739 7.56411,-18.21739 0,0 4.46987,14.09486 7.5625,17.1875 3.09264,3.09263 6.19207,23.71937 16.15724,23.71937 9.96516,0 19.21838,-13.75704 18.53113,-25.44034 -0.68726,-11.6833 1.74531,-26.41453 8.59337,-33.65391 12.02692,-12.71417 11.68701,-36.43762 11.68701,-36.43762 l 66.3125,-48.78125 -71.46875,30.90625 c 4.82484,-6.55491 1.47059,-15.83619 1.375,-24.03125 -3.58899,5.96484 -6.70037,12.13436 -16.5,15.4375 0,0 -10.28199,-3.4375 -12.34375,-3.4375 -2.06176,0 -9.625,-0.34375 -9.625,-0.34375 1.58124,-8.54895 -7.73885,-14.37258 -12.71875,-21.28125 -0.76525,7.54801 -1.44342,15.35724 -3.09375,20.25 l -10.3125,0 c 0,0 -7.1365,-18.87474 -23.37994,-19.56349 -34.47056,-1.46161 -54.96468,-9.96677 -54.96468,-9.96677 z m -9.96837,249.46689 12.03001,3.78249 c -14.86755,8.86778 -24.71693,25.0229 -37.81188,37.43589 -6.99245,-11.36726 -21.35832,-21.27846 -22.65514,-39.15501 16.87031,0.51995 34.19788,1.802 48.43701,-2.06337 z"
       id="path5581"
       style="fill:#ffffff;stroke:none" />
  </g>
  <g
     transform="translate(53.78125,0)"
     id="layer4"
     style="display:inline">
    <path
       d="m -53.78125,942.125 51,117.4688 12.40625,0 35.875,-75.6563 36.03125,75.6563 12.4375,0 50.8125,-117.4688 -30.59375,0 -27.21875,64.0938 -29.75,-64.0938 -23.28125,0 -29.75,64.0938 -27.375,-64.0938 -30.59375,0 z m 212.1875,0 0,115.9375 28.90625,0 0,-115.9375 -28.90625,0 z m 55.125,0 0,115.9375 28.90625,0 0,-54.4063 45.90625,54.4063 36.1875,0 -51.15625,-61.53125 37.75,-54.40625 -31.8125,0 -36.53125,52.53125 -0.34375,0 0,-52.53125 -28.90625,0 z m 122.90625,0 0,115.9375 28.90625,0 0,-115.9375 -28.90625,0 z m 55.28125,0 0,115.9375 28.90625,0 0,-72.40625 31.28125,36.37495 4.4375,0 31.28125,-36.37495 0,72.40625 28.875,0 0,-115.9375 -25.15625,0 -37.21875,43 -37.21875,-43 -25.1875,0 z m 150.28125,0 0,115.9375 85.53125,0 0,-21.25 -56.625,0 0,-27.875 52.875,0 0,-21.25 -52.875,0 0,-24.3125 55.4375,0 0,-21.25 -84.34375,0 z m 106.9375,0 0,115.9375 47.9375,0 c 23.11992,0 40.1199,-5.4325 51,-16.3125 10.87988,-10.88 16.31237,-24.6525 16.3125,-41.3125 -1.3e-4,-15.86659 -5.35846,-29.522 -16.125,-40.96875 -10.76677,-11.44656 -26.74425,-17.2303 -47.9375,-17.34375 l -51.1875,0 z m 137.1875,0 0,115.9375 28.90625,0 0,-115.9375 -28.90625,0 z m 89.625,0 -46.75,115.9375 30.59375,0 8.6875,-22.9375 51.84375,0 9.53125,22.9375 31.09375,0 -51.5,-115.9375 -33.5,0 z m -197.90625,21.25 18.53125,0.1875 c 13.71326,9e-5 23.46992,3.62176 29.25,10.875 5.89324,7.25341 8.8124,15.87048 8.8125,25.8437 -10e-5,1.0201 -0.043,2.0855 -0.15625,3.2188 -10e-5,1.0201 -0.043,2.0426 -0.15625,3.0625 -1.0201,7.5934 -4.32176,14.5596 -9.875,20.9063 -5.55342,6.3466 -14.72466,9.4571 -27.53125,9.3437 l -18.875,0 0,-73.4375 z m 215.09375,6.46875 18.6875,45.03125 -35.6875,0 17,-45.03125 z"
       id="text4759"
       style="font-size:170px;font-style:normal;font-variant:normal;font-weight:normal;font-stretch:normal;line-height:125%;letter-spacing:-0.47px;word-spacing:0px;fill:#4d4d4d;fill-opacity:1;stroke:none;font-family:Nimbus Roman No9 L;-inkscape-font-specification:Nimbus Roman No9 L" />
    <path
       d="m 568.875,1107.5938 c -8.65336,0 -15.60585,1.9775 -20.8125,5.9374 -5.20667,3.8868 -7.8125,9.0984 -7.8125,15.625 0,6.7468 1.97749,11.7626 5.9375,15.0626 3.95999,3.3 8.37873,5.9058 13.21875,7.8124 1.39331,0.5867 2.79414,1.143 4.1875,1.6563 1.46664,0.44 2.83622,0.9242 4.15625,1.4375 3.00663,1.1 5.54038,2.305 7.59375,3.625 2.05329,1.32 3.09371,3.0296 3.09375,5.1562 -4e-5,2.2001 -0.96838,3.9409 -2.875,5.1876 -1.83337,1.1733 -4.5317,1.75 -8.125,1.75 -1.17336,0 -2.30628,-0.052 -3.40625,-0.125 -1.10003,-0.1467 -2.21253,-0.3113 -3.3125,-0.5313 -2.78669,-0.5867 -5.68085,-1.5754 -8.6875,-2.9687 -2.93335,-1.4667 -6.33209,-3.5163 -10.21875,-6.1563 l 0,16.2813 c 0.51333,0.22 0.96624,0.4566 1.40625,0.75 0.51333,0.22 0.99749,0.4362 1.4375,0.6562 3.22665,1.6133 6.65665,2.9938 10.25,4.0938 3.59331,1.0999 8.24872,1.6249 13.96875,1.625 8.35996,-1e-4 15.22953,-1.9775 20.65625,-5.9376 5.42661,-3.9599 8.15619,-9.532 8.15625,-16.7187 -6e-5,-6.5266 -1.97756,-11.4187 -5.9375,-14.7187 -3.96005,-3.3733 -8.32713,-6.0513 -13.09375,-8.0313 -1.68671,-0.66 -3.35546,-1.2679 -4.96875,-1.7813 -1.54004,-0.5866 -2.9817,-1.1632 -4.375,-1.75 -2.7867,-1.0266 -5.15586,-2.1391 -7.0625,-3.3124 -1.83336,-1.2467 -2.75002,-2.8121 -2.75,-4.7188 -2e-5,-1.9066 0.98873,-3.3999 2.96875,-4.5 1.97997,-1.0999 4.65789,-1.6562 8.03125,-1.6562 3.22663,0 6.65663,0.5046 10.25,1.5312 3.59328,1.0267 8.10453,2.7159 13.53125,5.0625 l 0,-14.5313 c -3.37339,-1.4665 -6.53547,-2.6199 -9.46875,-3.5 -2.93338,-0.8799 -5.87921,-1.5082 -8.8125,-1.875 -1.17337,-0.1465 -2.3267,-0.2703 -3.5,-0.3437 -1.17337,-0.073 -2.37837,-0.094 -3.625,-0.094 z m -253.875,0.875 0,75.0312 57.1875,0 0,-13.75 -38.5,0 0,-61.2812 -18.6875,0 z m 89.40625,0 -30.25,75.0312 19.8125,0 5.59375,-14.8438 33.5625,0 6.15625,14.8438 20.125,0 -33.3125,-75.0312 -21.6875,0 z m 63.25,0 0,75.0312 36.53125,0 c 8.06661,0 13.97869,-1.4729 17.71875,-4.4062 3.81327,-3.0067 6.31576,-6.3334 7.5625,-10 0.43993,-1.32 0.75951,-2.6284 0.90625,-3.875 0.21993,-1.2467 0.31243,-2.4517 0.3125,-3.625 -7e-5,-4.4 -1.32882,-8.355 -3.96875,-11.875 -2.64006,-3.52 -6.61548,-5.9817 -11.96875,-7.375 3.15327,-1.54 5.63536,-3.61 7.46875,-6.25 1.83327,-2.64 2.74993,-5.5342 2.75,-8.6876 -7e-5,-0.7332 -0.0721,-1.4336 -0.21875,-2.0937 -0.0734,-0.7333 -0.21757,-1.4854 -0.4375,-2.2187 -1.02673,-3.6667 -3.48839,-6.9933 -7.375,-10 -3.81339,-3.0066 -9.40588,-4.5516 -16.8125,-4.625 l -32.46875,0 z m 18.71875,13.75 9.78125,0.125 c 3.22663,0 5.56454,0.7725 7.03125,2.3124 1.53995,1.5401 2.38454,3.198 2.53125,5.0313 -5e-5,0.073 -5e-5,0.1971 0,0.3437 -5e-5,0.073 -5e-5,0.1455 0,0.2188 -5e-5,0.073 -5e-5,0.1971 0,0.3438 -5e-5,0.073 -5e-5,0.1454 0,0.2187 -0.14671,1.9067 -0.9913,3.668 -2.53125,5.2813 -1.46671,1.54 -3.80462,2.2608 -7.03125,2.1874 l -9.78125,0 0,-16.0624 z m -70.84375,4.1874 12.09375,29.1563 -23.09375,0 11,-29.1563 z m 70.84375,25.625 13.0625,0.125 c 3.29996,1e-4 6.02954,0.7209 8.15625,2.1876 2.19995,1.3933 3.31245,3.4946 3.3125,6.2812 -5e-5,3.2267 -1.04047,5.5646 -3.09375,7.0312 -2.05338,1.4667 -5.66838,2.1671 -10.875,2.0938 l -10.5625,0 0,-17.7188 z"
       id="text4763"
       style="font-size:110px;font-style:normal;font-variant:normal;font-weight:bold;font-stretch:normal;line-height:125%;letter-spacing:-0.47px;word-spacing:0px;fill:#666666;fill-opacity:1;stroke:none;display:inline;font-family:GillSans-Bold;-inkscape-font-specification:GillSans-Bold Bold" />
  </g>
</svg>
